<?xml version="1.0" encoding="UTF-8"?>
<svg version="1.1" xmlns="http://www.w3.org/2000/svg" width="512" height="512">
<path d="M0 0 C0.92377441 0.18723633 1.84754883 0.37447266 2.79931641 0.56738281 C22.6632405 4.64944565 41.76906486 11.13504779 60 20 C61.34215576 20.65162109 61.34215576 20.65162109 62.71142578 21.31640625 C88.32964278 33.89987114 110.43836415 50.29599234 131 70 C131.82113281 70.77988281 132.64226562 71.55976562 133.48828125 72.36328125 C139.14872183 77.86730206 144.08542113 83.8302589 149 90 C149.63421875 90.75539063 150.2684375 91.51078125 150.921875 92.2890625 C184.29506531 132.41963432 205.92858905 187.46603928 206.203125 239.79296875 C206.21013931 240.69355515 206.21715363 241.59414154 206.22438049 242.52201843 C206.24177809 245.41056381 206.24823227 248.29890416 206.25 251.1875 C206.25101212 252.66805878 206.25101212 252.66805878 206.25204468 254.17852783 C206.23631096 268.65090081 205.86630933 282.76824751 203 297 C202.82307617 297.90717773 202.64615234 298.81435547 202.46386719 299.74902344 C194.55546442 339.42762453 178.24236521 377.23900201 153 409 C152.29617188 409.89589844 151.59234375 410.79179687 150.8671875 411.71484375 C144.92658072 419.1352791 138.54195442 426.11158694 132 433 C130.82244141 434.24136719 130.82244141 434.24136719 129.62109375 435.5078125 C124.11876265 441.15779112 118.16311284 446.09070095 112 451 C111.24460937 451.63421875 110.48921875 452.2684375 109.7109375 452.921875 C69.58036568 486.29506531 14.53396072 507.92858905 -37.79296875 508.203125 C-38.69355515 508.21013931 -39.59414154 508.21715363 -40.52201843 508.22438049 C-43.41056381 508.24177809 -46.29890416 508.24823227 -49.1875 508.25 C-50.17453918 508.25067474 -51.16157837 508.25134949 -52.17852783 508.25204468 C-66.64725551 508.23631492 -80.7734122 507.88011084 -95 505 C-95.9178125 504.81775879 -96.835625 504.63551758 -97.78125 504.44775391 C-104.23280257 503.13618658 -110.62290118 501.63355484 -117 500 C-118.11616699 499.71817871 -118.11616699 499.71817871 -119.25488281 499.43066406 C-150.97841874 491.26320025 -181.41556203 475.33348345 -207 455 C-207.89589844 454.29617188 -208.79179687 453.59234375 -209.71484375 452.8671875 C-217.1352791 446.92658072 -224.11158694 440.54195442 -231 434 C-232.24136719 432.82244141 -232.24136719 432.82244141 -233.5078125 431.62109375 C-239.159036 426.11755031 -244.10390879 420.17648349 -249 414 C-249.87406123 412.92761957 -250.7490929 411.85602952 -251.625 410.78515625 C-284.23523674 370.5991579 -305.78440171 317.16678439 -306.23828125 265.04296875 C-306.24812042 264.11038239 -306.25795959 263.17779602 -306.26809692 262.21694946 C-306.44142184 241.50966893 -306.36231798 221.33973818 -302 201 C-301.76394043 199.89285645 -301.52788086 198.78571289 -301.28466797 197.64501953 C-294.37727628 166.43037842 -281.89921428 136.52183022 -264 110 C-263.39140137 109.09628662 -263.39140137 109.09628662 -262.77050781 108.17431641 C-248.76893953 87.58279509 -231.49595703 68.45442226 -212 53 C-210.92761957 52.12593877 -209.85602952 51.2509071 -208.78515625 50.375 C-177.58393761 25.05575528 -140.18619435 8.35508292 -101 0 C-99.95344238 -0.22445801 -98.90688477 -0.44891602 -97.82861328 -0.68017578 C-66.48950665 -7.03579538 -31.23837576 -6.65246633 0 0 Z M-152 58 C-153.22624618 58.62296982 -154.45548723 59.24007608 -155.6875 59.8515625 C-174.43883099 69.26386123 -190.84076416 82.6211252 -206 97 C-206.50321777 97.47453613 -207.00643555 97.94907227 -207.52490234 98.43798828 C-215.52391512 106.03048963 -222.41254889 114.16621584 -229 123 C-229.42522949 123.55913086 -229.85045898 124.11826172 -230.28857422 124.69433594 C-237.54470107 134.25200244 -243.47860829 144.35557576 -249 155 C-249.39074707 155.74878418 -249.78149414 156.49756836 -250.18408203 157.26904297 C-266.04672991 188.0557599 -273.45520261 221.81414341 -273.375 256.3125 C-273.37412384 257.23586151 -273.37324768 258.15922302 -273.37234497 259.11056519 C-273.3246572 274.39457827 -272.44253569 289.05104206 -269 304 C-268.76394043 305.02754395 -268.52788086 306.05508789 -268.28466797 307.11376953 C-258.50534086 348.06588402 -237.66232669 382.58632399 -209 413 C-207.96552734 414.09828125 -207.96552734 414.09828125 -206.91015625 415.21875 C-186.61951282 436.1318058 -160.74911998 450.93083004 -134.1875 462.3125 C-133.05973145 462.80085327 -133.05973145 462.80085327 -131.90917969 463.29907227 C-125.94837605 465.7970256 -120.37127675 467.26237907 -114 469 C-114 454.15 -114 439.3 -114 424 C-119.94 424.66 -125.88 425.32 -132 426 C-152.32406524 426.73637918 -170.57807899 424.26374955 -186.5625 410.625 C-192.65940852 404.64061832 -197.20565571 398.34707615 -200.3125 390.375 C-206.76117568 373.93511956 -217.3188645 361.27107238 -231.54150391 351.07128906 C-232.21616699 350.5862793 -232.89083008 350.10126953 -233.5859375 349.6015625 C-234.1948584 349.17182129 -234.8037793 348.74208008 -235.43115234 348.29931641 C-237 347 -237 347 -239 344 C-238.625 341.3125 -238.625 341.3125 -238 339 C-229.58238567 335.74773992 -221.25328194 336.86578382 -212.9375 340.0625 C-200.05834975 345.95492168 -192.32350726 354.63642628 -184.5 366.125 C-176.34308874 377.87242524 -165.22166381 386.19350759 -151 389 C-139.19510409 390.25081435 -128.17151804 388.98048887 -117 385 C-116.24332031 384.76796875 -115.48664063 384.5359375 -114.70703125 384.296875 C-111.91744394 382.17755466 -111.84301214 379.46888512 -111.125 376.125 C-108.75364926 366.08454862 -104.77245047 357.8037881 -98 350 C-98.94875 349.85304688 -99.8975 349.70609375 -100.875 349.5546875 C-134.1710388 344.16378114 -168.37527142 334.724077 -189.94140625 306.9453125 C-210.58484194 277.40992253 -217.55456044 237.37929325 -211.39355469 202.02685547 C-208.32764886 186.23706007 -201.95804508 171.0551211 -191.41015625 158.76171875 C-189.85744153 156.82190064 -188.7969911 155.36526392 -188 153 C-188.37865865 149.99768406 -188.37865865 149.99768406 -189.3125 146.8125 C-190.64819511 141.49927035 -191.69821459 136.46871736 -192 131 C-192.05285156 130.08476562 -192.10570312 129.16953125 -192.16015625 128.2265625 C-192.54317182 115.00419881 -190.40837122 101.5399576 -185.76953125 89.15234375 C-184.88777962 87.06708702 -184.88777962 87.06708702 -185 85 C-162.47523099 85.63900054 -143.33957888 93.59027803 -124.0234375 104.66796875 C-123.33685059 105.0537207 -122.65026367 105.43947266 -121.94287109 105.83691406 C-120 107 -120 107 -118.35791016 108.26464844 C-115.56485363 110.2951912 -113.79677919 111.03684403 -110.29150391 110.87475586 C-107.02949212 110.33455174 -103.84147814 109.64064941 -100.625 108.875 C-83.92702109 105.11946907 -67.98805511 103.66281488 -50.9074707 103.73925781 C-48.06895536 103.74997563 -45.23107444 103.73929448 -42.39257812 103.7265625 C-27.50898786 103.71413894 -12.73456765 104.42155941 1.75 108.125 C10.42596973 110.55112963 10.42596973 110.55112963 18.8671875 108.53125 C19.85976563 107.8609375 20.85234375 107.190625 21.875 106.5 C41.42466406 93.81191258 61.69540783 86.16676483 85 85 C92.52963869 107.18961705 95.52453288 130.42640135 88 153 C89.42965651 155.18281725 89.42965651 155.18281725 91.5 157.4375 C111.22241663 181.24871032 114.89334998 211.49614315 112.25 241.375 C109.72482844 266.97685418 102.35360639 291.4558003 85 311 C84.39800781 311.68449219 83.79601562 312.36898438 83.17578125 313.07421875 C61.46969994 336.23647323 28.21248002 343.87765084 -2 348 C-1.63648438 348.42667969 -1.27296875 348.85335938 -0.8984375 349.29296875 C11.94034344 365.25914504 13.44733444 382.87308065 13.51171875 402.51953125 C13.52859687 404.47394414 13.54675124 406.42834638 13.56611633 408.38273621 C13.61328249 413.48382233 13.64330662 418.58486528 13.66955566 423.68609619 C13.69953112 428.90865605 13.74600237 434.13106756 13.79101562 439.35351562 C13.87666813 449.56893227 13.94418113 459.78437977 14 470 C15.43984947 469.68882982 16.87917808 469.37524892 18.31828308 469.06065369 C19.11986438 468.88628753 19.92144567 468.71192137 20.74731731 468.53227139 C63.08036877 458.52967667 105.0519863 423.594579 130 389 C131.1446875 387.43765625 131.1446875 387.43765625 132.3125 385.84375 C159.38745832 347.86360014 173.48681153 303.70773405 173.375 257.125 C173.37412384 256.2278125 173.37324768 255.330625 173.37234497 254.40625 C173.18657946 196.4834081 149.88211868 142.66479134 110 101 C109.52981445 100.50258301 109.05962891 100.00516602 108.57519531 99.49267578 C100.97933706 91.48796801 92.84479958 84.58489484 84 78 C83.43023437 77.56945312 82.86046875 77.13890625 82.2734375 76.6953125 C73.90992239 70.39403399 65.23554007 64.98015024 55.99267578 60.06152344 C54.70307584 59.37453734 53.41728838 58.68032535 52.13623047 57.97753906 C-9.18092077 24.39480862 -90.79578447 23.92037999 -152 58 Z " fill="#C8C9CB" transform="translate(306,4)"/>
</svg>
